<?xml version="1.0" encoding="UTF-8" standalone="no"?>
<svg
   xmlns:dc="http://purl.org/dc/elements/1.1/"
   xmlns:cc="http://creativecommons.org/ns#"
   xmlns:rdf="http://www.w3.org/1999/02/22-rdf-syntax-ns#"
   xmlns:svg="http://www.w3.org/2000/svg"
   xmlns="http://www.w3.org/2000/svg"
   viewBox="0 0 206.66667 177.33333"
   height="177.33333"
   width="206.66667"
   xml:space="preserve"
   id="svg2"
   version="1.1"><metadata
     id="metadata8"><rdf:RDF><cc:Work
         rdf:about=""><dc:format>image/svg+xml</dc:format><dc:type
           rdf:resource="http://purl.org/dc/dcmitype/StillImage" /></cc:Work></rdf:RDF></metadata><defs
     id="defs6" /><g
     transform="matrix(1.3333333,0,0,-1.3333333,0,177.33333)"
     id="g10"><g
       transform="scale(0.1)"
       id="g12"><path
         id="path14"
         style="fill:#000002;fill-opacity:1;fill-rule:evenodd;stroke:none"
         d="m 1430.07,681.004 h 71.96 V 45.3555 h -71.96 z M 50.8359,926.867 H 131.789 V 45.3555 H 50.8359 Z M 173.766,282.223 H 1388.09 V 213.262 H 173.766 Z m 0,194.894 H 1388.09 V 324.199 H 173.766 Z m 287.839,41.973 c -42.074,0 -220.449,-3.238 -248.777,3.086 l -21.703,11.277 c -29.023,25.371 -25.797,114.567 33.609,114.567 h 245.868 c 71.804,0 78.382,-128.93 -8.997,-128.93 z M 8.85156,959.848 V 12.3711 C 15.3477,8.02344 18.832,3.375 29.8438,3.375 H 152.773 c 14,0 20.993,6.9922 20.993,20.9883 V 171.281 H 1388.09 V 15.3711 c 8.91,-7.96876 10.53,-11.53126 18,-11.9961 h 116.93 c 11.01,0 14.5,4.64844 20.99,8.9961 V 701.992 c 0,16.817 -10.37,20.988 -26.99,20.988 h -104.94 c -13.63,0 -15.64,-6.406 -23.99,-11.996 V 519.09 H 551.559 c 40.308,76.187 -0.735,170.906 -68.965,170.906 H 218.742 c -24.683,0 -28.07,-8.051 -44.976,-11.992 v 233.871 c 0,69.582 17.402,56.969 -143.9222,56.969 -11.0118,0 -14.4961,-4.645 -20.99224,-8.996" /><path
         id="path16"
         style="fill:#000000;fill-opacity:1;fill-rule:nonzero;stroke:none"
         d="m 308.313,1065.37 v 263.5 h 181.066 v -44.53 H 361.684 v -62.56 h 110.394 v -44.54 H 361.684 v -111.87 z m 224.796,0 v 263.5 H 645.18 c 28.144,0 48.64,-2.39 61.39,-7.11 12.825,-4.72 23.004,-13.13 30.672,-25.22 7.672,-12.14 11.528,-25.93 11.528,-41.52 0,-19.81 -5.766,-36.13 -17.356,-49.01 -11.594,-12.87 -28.883,-20.98 -51.953,-24.35 11.473,-6.69 20.922,-14.04 28.336,-22.08 7.484,-8.03 17.547,-22.33 30.187,-42.81 l 32.137,-51.4 h -63.605 l -38.153,57.53 c -13.679,20.43 -23.058,33.31 -28.16,38.64 -5.023,5.28 -10.359,8.96 -16.004,10.92 -5.703,1.97 -14.668,2.95 -26.933,2.95 H 586.48 v -110.04 z m 53.371,151.99 h 39.372 c 25.515,0 41.41,1.11 47.781,3.25 6.32,2.14 11.351,5.89 14.906,11.17 3.617,5.27 5.402,11.89 5.402,19.8 0,8.9 -2.394,16.02 -7.121,21.54 -4.718,5.45 -11.406,8.89 -19.992,10.3 -4.359,0.62 -17.297,0.92 -38.824,0.92 H 586.48 Z m 212.395,-151.99 v 263.5 h 195.063 v -44.53 H 852.25 v -58.52 H 984 v -44.53 H 852.25 v -71.4 h 146.832 v -44.52 z m 245.475,0 v 263.5 h 195.06 v -44.53 h -141.69 v -58.52 h 131.75 v -44.53 h -131.75 v -71.4 h 146.83 v -44.52 h -200.2" /></g></g></svg>