<?xml version="1.0" encoding="UTF-8" standalone="no"?>
<svg
   xmlns:dc="http://purl.org/dc/elements/1.1/"
   xmlns:cc="http://creativecommons.org/ns#"
   xmlns:rdf="http://www.w3.org/1999/02/22-rdf-syntax-ns#"
   xmlns:svg="http://www.w3.org/2000/svg"
   xmlns="http://www.w3.org/2000/svg"
   viewBox="0 0 132 77.333336"
   height="77.333336"
   width="132"
   xml:space="preserve"
   id="svg2"
   version="1.1"><metadata
     id="metadata8"><rdf:RDF><cc:Work
         rdf:about=""><dc:format>image/svg+xml</dc:format><dc:type
           rdf:resource="http://purl.org/dc/dcmitype/StillImage" /></cc:Work></rdf:RDF></metadata><defs
     id="defs6" /><g
     transform="matrix(1.3333333,0,0,-1.3333333,0,77.333333)"
     id="g10"><g
       transform="scale(0.1)"
       id="g12"><path
         id="path14"
         style="fill:#000000;fill-opacity:1;fill-rule:evenodd;stroke:none"
         d="m 74.5352,284.379 c 13.1015,3.961 17.8437,17.129 15.039,33.988 -13.0312,-5.051 -17.0703,-18.086 -15.039,-33.988" /><path
         id="path16"
         style="fill:#000000;fill-opacity:1;fill-rule:evenodd;stroke:none"
         d="m 488.199,47.3047 c -16.554,-39.51954 -68.801,-36.9336 -50.601,7.3242 15.59,37.918 69.566,37.9649 50.601,-7.3242 z m -45.394,48 C 431.801,39.1328 352.469,15.9375 365.75,78.1563 c 11.57,54.1717 88.352,74.8277 77.055,17.1484 z M 373.082,126.504 C 356.086,63.043 269.844,38.9531 288.25,108.031 c 16.637,62.422 103.414,87.871 84.832,18.473 z m -81.707,24 c -15.047,-52.4532 -86.633,-56.2852 -70.422,0.828 13.43,47.32 86.75,56.082 70.422,-0.828 z m 165.297,253.367 c -7.746,-7.66 -46.496,-77.332 -86.438,-80.332 -17.562,-1.316 -31.851,7.598 -39.289,18.024 -8.953,12.554 18.493,48.562 31.196,74.015 21.093,42.254 15.968,34.973 57.488,55.301 26.09,12.769 51.797,22.598 77.617,35.215 50.414,24.633 127.856,-22.477 188.453,-10.918 29.922,5.711 64.985,14.773 94.969,18.168 L 843.094,287.445 C 833.09,282 820.996,282.336 810.113,279.66 c -10.093,-2.472 -6.496,-0.808 -12.086,-9.668 -10.988,-17.402 -33.5,-41.387 -55.601,-50.23 L 611.055,355.977 c 32.812,-9.61 48.117,-10.426 76.425,2.628 -6.441,4.579 -16.664,0.442 -31.464,0.407 -12.028,-0.028 -23.239,1.281 -34.395,4.379 -20.324,5.644 -34.168,15.265 -48.219,26.066 -34.152,26.258 -19.726,21.961 -49.433,15.383 -21.008,-4.652 -46.297,-4.953 -67.297,-0.969 z m 2.41,-10.746 c 15.645,-1.219 28.332,-2.496 44.27,-1.152 56.058,4.718 18.703,27.996 108.312,-50.551 24.891,-21.817 24.188,-26.399 36.789,-37.734 11.66,-10.485 15.578,-15.247 24.559,-25.833 12.152,-14.324 65.261,-66.789 71.789,-76.937 16.527,-25.688 -8.543,-59.527 -39.551,-49.176 -13.762,4.598 -17.715,14.696 -27.305,23.012 -9.683,8.394 -17.336,15.141 -26.882,23.66 l -25.356,24.945 c -12.621,11.047 -20.062,22.102 -28.207,18.746 -1.797,-8.359 56.098,-57.761 73.758,-76.328 10.68,-11.226 22.293,-25.636 3.305,-48.179 -34.032,-40.391 -74.137,13.757 -87.313,24.113 -14.512,11.406 -35.707,37.637 -48.715,37.484 0.098,-11.871 4.528,-9.254 21.192,-26.547 l 51.578,-46.8 c 6.113,-14.4183 -2.672,-29.7738 -10.516,-36.8363 -27.312,-24.6054 -59.797,12.0078 -93.711,38.1683 -6.996,5.398 -21.508,18.765 -30.289,18.562 -2.101,-11.637 3.938,-10.648 24.602,-26.7147 25.933,-20.1601 58.918,-36.1328 37.593,-54.6328 -12.714,-11.0351 -28.898,0.336 -38.277,7.711 2.711,58.7775 -36.258,37.3984 -49.863,34.5781 7.773,20.8674 0.933,42.0544 -15.203,50.0974 -21.504,10.723 -40.286,-4.898 -52.493,-12.019 4.18,25.152 0.153,47.609 -22.605,52.496 -28.324,6.082 -46.879,-16.356 -57.816,-23.254 1.132,22.219 -3.672,35.851 -19.829,43.559 -20.71,9.882 -35.585,-3.868 -49.492,-8.817 -14.468,21.195 -58.488,39.395 -91.847,47.305 l 91.597,237.847 c 21.707,-6.765 40.301,-17.558 67.297,-13.488 17.305,2.61 81.934,35.375 120.402,47.539 25.012,7.914 39.45,16.762 64.684,5.141 -16.726,-13.461 -74.621,-31.801 -99.344,-47.043 -17.586,-10.844 -45.066,-66.453 -56.968,-89.559 -9.793,-19.027 -18.399,-32.648 -0.125,-48.89 53.793,-47.821 120.617,39.632 129.98,65.527 z M 749.641,212.727 c 16.371,6.242 38.293,26.199 47.777,38.785 15.871,21.066 3.906,16.461 58.215,27.636 L 787.285,524.172 C 743.047,523.074 683.93,494.594 640.953,505.09 c -25.308,6.18 -52.133,7.355 -75.437,13.113 -63.84,15.766 -53.953,-3.902 -71.321,1.02 -11.894,3.367 -14.785,10.664 -34.625,9.91 -30.98,-1.18 -144.898,-56.223 -159.32,-58.684 -32.836,-5.601 -45.195,10.516 -71.422,14.496 -9.277,-11.859 -97.797,-246.875 -98.289,-252.843 8.109,-6.368 40.785,-16.317 53.399,-20.946 17.046,-6.261 36.183,-18.57 43.093,-29.453 -5.508,-9.308 -12.777,-16.574 -16.254,-29.996 -9.714,-37.516 19.422,-71.8476 68.25,-38.551 -5.488,-26.5232 -2.859,-49.4333 20.301,-55.613 24.75,-6.6016 44.281,11.664 55.906,20.2304 -4.304,-56.1211 37.524,-53.9257 69.133,-31.6679 0.094,-23.8946 7.805,-40.89066 34.094,-36.63284 21.027,3.40234 29.894,20.17574 39.164,31.72264 12.449,-5.625 19.961,-14.9648 37.516,-10.0234 11.074,3.1211 18.027,13.6562 20.132,25.5742 35.883,-14.4609 67.274,2.8633 67.313,41.1094 39.269,-11.3203 70.18,7.6365 71.066,47.7855 23.762,-7.621 41.782,-7.754 57.059,10.957 19.383,23.734 3.113,45.316 -1.07,56.129" /><path
         id="path18"
         style="fill:#000000;fill-opacity:1;fill-rule:evenodd;stroke:none"
         d="M 15.2305,265.715 120.059,537.043 c 15.738,-3.32 40.504,-14.949 56.738,-21.09 20.922,-7.918 44.141,-10.433 33.324,-37.164 C 194.836,440.996 180.543,402.68 165.781,364.609 93.4922,178.215 132.887,234.328 15.2305,265.715 Z M 2.63672,259.625 C 48.7031,250.777 107.637,202.473 126.266,236.289 l 48.425,124.477 c 8.18,21.582 16.317,41.558 24.903,63.839 31.898,82.743 39.008,77.532 -22.367,101.625 -16.481,6.469 -47.622,20.68 -62.887,23.438 L 2.63672,259.625" /><path
         id="path20"
         style="fill:#000000;fill-opacity:1;fill-rule:evenodd;stroke:none"
         d="m 895.539,567.656 75.484,-270.461 c -18.449,-3.031 -40.578,-9.773 -58.48,-14.285 -51.094,-12.867 -37.848,-25.867 -79.109,124.106 -40.762,148.121 -49.274,132.851 3.328,145.832 19.152,4.726 39.801,11.207 58.777,14.808 z m 5.285,11.524 c -20.867,-4.45 -43.613,-10.672 -64.5,-16.051 -22.246,-5.731 -48.32,-6.879 -46.801,-33.305 0.649,-11.355 13.727,-52.097 17.45,-65.105 9.535,-33.305 46.586,-175.168 53.285,-186.606 16.305,-27.828 70.664,3.758 122.199,11.754 -1.758,17.422 -78.664,285.481 -81.633,289.313" /><path
         id="path22"
         style="fill:#000000;fill-opacity:1;fill-rule:evenodd;stroke:none"
         d="m 903.227,342.813 c 11.777,-7.438 12.226,-26.055 6.07,-35.125 -9.977,8.304 -14.707,25.265 -6.07,35.125 z m -6.649,6.644 c -18.73,-16.477 0.668,-59.371 18.172,-49.949 19.852,10.687 1.711,67.437 -18.172,49.949" /></g></g></svg>