<?xml version="1.0" encoding="UTF-8" standalone="no"?>
<svg
   xmlns:dc="http://purl.org/dc/elements/1.1/"
   xmlns:cc="http://creativecommons.org/ns#"
   xmlns:rdf="http://www.w3.org/1999/02/22-rdf-syntax-ns#"
   xmlns:svg="http://www.w3.org/2000/svg"
   xmlns="http://www.w3.org/2000/svg"
   viewBox="0 0 173.33333 152"
   height="152"
   width="173.33333"
   xml:space="preserve"
   id="svg2"
   version="1.1"><metadata
     id="metadata8"><rdf:RDF><cc:Work
         rdf:about=""><dc:format>image/svg+xml</dc:format><dc:type
           rdf:resource="http://purl.org/dc/dcmitype/StillImage" /></cc:Work></rdf:RDF></metadata><defs
     id="defs6" /><g
     transform="matrix(1.3333333,0,0,-1.3333333,0,152)"
     id="g10"><g
       transform="scale(0.1)"
       id="g12"><path
         id="path14"
         style="fill:#ed1c24;fill-opacity:1;fill-rule:evenodd;stroke:none"
         d="m 645.633,330.199 c -140.399,0 -271.024,121.055 -271.024,258.84 0,89.488 21.633,147.399 82.954,209.383 142.679,144.207 403.218,76.695 453.632,-135.656 31.336,-131.946 -40.968,-254.571 -153.898,-307.207 -16.641,-7.758 -30.563,-12.227 -50.125,-16.864 -13.539,-3.211 -44.461,-8.496 -61.539,-8.496 z M 328.93,604.262 c 0,-83.508 35.32,-165.559 90.492,-223.16 7.25,-7.571 13.609,-11.239 21.391,-18.192 18.195,-16.246 49.632,-37.41 72.085,-46.676 234.024,-96.629 449.43,68.746 449.43,288.028 0,174.722 -147.492,313.652 -304.523,313.652 -105.422,0 -176,-31.68 -238.289,-93.617 C 363.867,768.977 328.93,683.75 328.93,604.262" /><path
         id="path16"
         style="fill:#ed1c24;fill-opacity:1;fill-rule:evenodd;stroke:none"
         d="m 858.789,330.199 c 0,-25.703 7.024,-1.426 9.281,-33.344 1.102,-15.503 2.516,-19.566 9.438,-30.16 8.734,-13.379 105.351,-109.265 116.172,-118.304 34.96,-29.227 85.28,-82.3988 118.62,-115.8519 51.17,-51.3633 75.17,-26.83597 112.67,10.6562 18.84,18.8281 37.55,31.9531 29.71,67.5667 -6.59,29.988 -71.31,85.179 -95.18,109.051 l -152.2,152.312 c -28.698,26.953 -42.23,15.805 -55.964,20.176 -0.719,0.23 -1.461,0.625 -2.133,0.906 l -3.82,2.273 c -0.602,0.305 -1.25,0.887 -1.86,1.184 -7.828,3.883 5.211,3.574 -14.695,3.574 -7.976,0 -70.039,-62.062 -70.039,-70.039" /><path
         id="path18"
         style="fill:none;stroke:#000000;stroke-width:7.08659983;stroke-linecap:butt;stroke-linejoin:miter;stroke-miterlimit:22.92560005;stroke-dasharray:none;stroke-opacity:1"
         d="m 517.734,671.258 3.039,-63.945 c -8.593,-0.719 -12.171,0.07 -12.171,-9.137 0,-46.758 25.39,-44.848 33.57,-76.055 4.656,-17.789 13.719,-42.969 23.617,-58.601 4.117,-6.5 28.149,-24.622 -3.18,-47.254 -7.265,-5.25 -25,-12.086 -35.742,-12.981 20.391,-27.832 94.664,-33.496 133.985,-33.496 21.304,0 41.054,4.149 57.546,9.449 l 49.04,27.09 c -20.024,1.668 -45.68,15.508 -45.68,36.547 0,7.32 5.969,10.195 10.914,16.492 18.742,23.875 19.445,56.238 24.836,72.61 5.086,15.453 12.648,10.347 20.101,25.57 6.079,12.406 8.102,31.984 8.102,49.766 -21.289,1.812 3.344,1.25 -7.711,62.328 -12.734,70.32 -54.75,67.726 -74.617,77.644 -32.383,16.168 -38.078,18.371 -76.024,18.371 -57.921,0 -109.625,-38.386 -109.625,-94.398 z" /><path
         id="path20"
         style="fill:none;stroke:#000000;stroke-width:7.08659983;stroke-linecap:butt;stroke-linejoin:miter;stroke-miterlimit:22.92560005;stroke-dasharray:none;stroke-opacity:1"
         d="m 371.563,299.75 c 0,-62.91 -10.282,-69.27 43.054,-90.937 116.305,-47.258 245.93,-59.848 370.367,-33.188 l 73.391,20.996 c 9.578,3.723 12.422,7.699 24.773,8.727 -5.992,22.441 -34.21,25.875 -46.976,62.644 -3.875,11.141 -4.078,23.934 -7.836,31.758 -34.164,-9.125 -60.18,-48.723 -197.938,-48.723 -53.46,0 -93.21,15.891 -132.281,32.153 -21.015,8.746 -59.07,32.75 -76.945,47.906 -8.828,7.48 -12.867,14.176 -22.203,20.43 -12.61,-8.442 -27.406,-32.239 -27.406,-51.766 z" /><path
         id="path22"
         style="fill:#000000;fill-opacity:1;fill-rule:evenodd;stroke:none"
         d="m 149.266,668.215 3.047,-60.902 c -26.407,-2.895 -2.055,-48.493 -0.008,-51.774 10.5,-16.863 16.218,-8.961 22.609,-35.258 4.742,-19.523 14.586,-41.121 24.055,-58.168 6.859,-12.375 35.804,-39.789 -37.485,-58.863 C 100.563,387.395 3.10156,372.18 3.10156,287.57 c 0,-62.16 -2.828122,-54.777 41.59374,-77.168 95.3907,-48.078 200.9377,-50.949 305.5547,-44.64 17.445,1.054 33.086,5.742 48.719,6.09 v 6.089 c -23.688,5.524 -56.281,25.301 -62.672,56.094 -6.594,31.774 -5.703,70.567 5.156,98.867 9.235,24.036 18.688,25.907 30.11,42.977 -5.844,25.09 -126.571,137.762 -58.274,344.516 4.086,12.343 10.156,22.597 12.602,33.085 -28.891,6.731 -16.157,12.176 -67,12.176 -59.11,0 -109.625,-39.324 -109.625,-97.441" /><path
         id="path24"
         style="fill:#000000;fill-opacity:1;fill-rule:evenodd;stroke:none"
         d="m 962.328,762.613 c 8.828,-37.91 36.539,-57.183 36.539,-167.48 0,-92.379 -36.195,-136.813 -42.633,-164.442 43.633,0 60.576,-19.472 82.976,-41.871 L 1230.3,202.305 c 17.15,3.992 27.89,10.976 41.8,19.101 23.07,13.469 19.1,36.332 19.1,66.164 0,55.383 -36.9,80.707 -82.61,97.043 -34.35,12.274 -124.46,17.867 -124.46,58.262 0,10.176 11.13,10.523 21,33.813 10.96,25.855 10.67,42.902 14.75,55.289 7.67,23.304 28.2,6.14 28.2,75.336 -21.29,1.812 3.34,1.25 -7.7,62.328 -12.74,70.32 -54.76,67.726 -74.62,77.644 -46.92,23.422 -57.96,20.09 -103.432,15.328" /><path
         id="path26"
         style="fill:#000000;fill-opacity:1;fill-rule:evenodd;stroke:none"
         d="m 694.352,1030.59 c 0,-13.77 2.007,-43.274 6.086,-51.77 -14.282,-1.187 -12.172,-0.019 -12.172,-27.41 61.609,0 136.484,-39.355 180.367,-75.418 l 44.969,-40.293 c 26.5,39.574 9.273,60.09 33.164,82.555 18.507,17.402 18.609,54.473 18.609,54.473 -10.094,13.777 -9.602,-1.204 -9.344,27.214 0.352,36.399 3.985,64.659 -22.468,93.239 -18.727,20.23 -36.727,19.57 -50.235,25.89 l -24.922,11.62 c -57.617,20.62 -164.054,2.9 -164.054,-100.1" /><path
         id="path28"
         style="fill:#000000;fill-opacity:1;fill-rule:evenodd;stroke:none"
         d="m 331.977,1030.59 c 0,-13.77 2.015,-43.274 6.086,-51.77 -13.149,-1.097 -12.172,-0.496 -12.172,-18.269 0,-37.235 23.828,-35.949 30.281,-58.028 9.93,-34 6.75,-30.187 24.523,-63.781 l 43.539,38.688 c 38.672,33.129 123,73.98 175.711,73.98 1.047,12.516 3.055,6.805 3.055,18.274 0,16.39 -9.18,-4.223 -9.406,27.14 -0.25,34.826 6.531,84.286 -41.242,111.016 -10.907,6.11 -18.477,5.7 -29.321,10.27 l -27,12.58 c -57.609,20.62 -164.054,2.9 -164.054,-100.1" /></g></g></svg>