<?xml version="1.0" encoding="UTF-8" standalone="no"?>
<svg
   xmlns:dc="http://purl.org/dc/elements/1.1/"
   xmlns:cc="http://creativecommons.org/ns#"
   xmlns:rdf="http://www.w3.org/1999/02/22-rdf-syntax-ns#"
   xmlns:svg="http://www.w3.org/2000/svg"
   xmlns="http://www.w3.org/2000/svg"
   viewBox="0 0 262.66666 337.33334"
   height="337.33334"
   width="262.66666"
   xml:space="preserve"
   id="svg2"
   version="1.1"><metadata
     id="metadata8"><rdf:RDF><cc:Work
         rdf:about=""><dc:format>image/svg+xml</dc:format><dc:type
           rdf:resource="http://purl.org/dc/dcmitype/StillImage" /></cc:Work></rdf:RDF></metadata><defs
     id="defs6" /><g
     transform="matrix(1.3333333,0,0,-1.3333333,0,337.33333)"
     id="g10"><g
       transform="scale(0.1)"
       id="g12"><path
         id="path14"
         style="fill:#000000;fill-opacity:1;fill-rule:evenodd;stroke:none"
         d="m 165.582,647.512 12.266,42.859 c 21.425,-11.016 71.777,-56.566 81.433,-73.555 L 215.828,595.82 c -25.078,20.266 -31.992,31.008 -50.246,51.692 z m 76.621,122.894 87.977,-70.394 c -11.766,-16.93 -12.93,-14.946 -25.926,-28.742 -18.512,7.464 -65.309,51.05 -81.867,65.332 z m 54.094,49.606 28.355,35.73 68.543,-59.492 c 8.289,-8.855 3.664,-3.687 10.016,-13.738 l -21.742,-31.485 c -37.844,17.766 -55.68,41.403 -85.172,68.985 z m 95.805,112.644 c 30.609,-27.761 51.554,-42.722 81.007,-72.84 -14.539,-19.543 -6.046,-13.472 -26.355,-25.929 -16.215,9.57 -69.609,57.519 -79.68,69.562 z m 42.562,50.293 18.934,25.101 c 38.261,-18.046 58.668,-43.96 87.226,-72.808 l -19.187,-24.637 c -39.063,17.993 -57.414,44.485 -86.973,72.344 z m 70.902,76.001 13.227,26.23 c 25.07,-7.89 71.254,-50.1 90.043,-71.23 l -26.875,-30.841 c -28.508,34.351 -27.625,18.521 -76.395,75.841 z m 428.688,595.19 194.866,-174.13 c -17.36,-30.7 -31.83,-37.7 -54.35,-65.48 L 783.551,1090.77 c -80.856,-71.8 -126.278,-35.06 -167.785,3.08 -24.961,22.95 -48.676,25.15 -53.946,65.15 -8.843,67.14 33.985,122.67 75.821,167.86 23.847,25.76 39.648,46.96 59.976,67.34 43.258,43.38 72.738,83.79 116.992,130.34 26.176,27.54 87.235,111.89 119.645,129.6 z M 1148.6,1498.4 c -28.47,12.54 -26.41,20.93 -49.89,40.83 -21,17.8 -32.85,23.5 -52.93,44.41 -20.04,20.88 -33.8,26.28 -52.647,45.18 -56.547,56.69 -38.445,22.31 -43.953,52.91 l 158.45,-133.28 c 44.42,-45.59 41.49,-18.04 40.97,-50.05 z m 26.6,24.46 c -24.29,8.43 -87.39,65.48 -109.4,88.57 -29.57,31.04 -82.152,57.26 -97.144,96.09 42.204,-20.98 75.754,-59.31 112.064,-88.69 23.59,-19.1 82.07,-68.67 94.48,-95.97 z m -136.49,248.23 c 12.03,31.51 94.25,117.31 120.82,136.22 81.58,58.08 118.16,47.29 172.17,-0.01 59.79,-52.37 60.71,-93.31 16.76,-173.78 -16.81,-30.77 -91.72,-115.73 -114.06,-131.7 -40.2,29.42 -145.15,138.3 -195.69,169.27 z m 9.45,151.75 c 28.62,183.83 266.68,265.3 419.2,142.71 160.14,-128.74 71.75,-399.66 -72.77,-427.38 33.92,40.87 83.73,85.19 85.81,172.09 2.32,97.1 -49.33,124.51 -96.05,165.06 -53.92,46.81 -78.38,88.91 -188.12,59.85 -79.86,-21.15 -103.23,-71.08 -148.07,-112.33 z M 933.18,1789.38 c -42.282,66.76 -9.371,213.46 21.996,277.07 125.614,254.75 428.034,306.16 640.824,127.85 111.11,-93.11 181.93,-297.11 94.27,-480.39 -64.06,-133.93 -213.32,-247.78 -425.31,-224.95 5.33,10.57 52.7,67.36 60,72.94 22.24,17.01 67.47,19.68 95.17,32.1 226.47,101.58 218.09,383.22 88.89,498.21 -97.23,86.53 -257.93,115.91 -387.91,25.94 -49.29,-34.11 -89.3,-82.42 -111.95,-150.64 -35.765,-107.75 30.45,-61.51 -75.98,-178.13 z M 828.234,1675.34 c -216.468,571 432.126,985.67 857.216,616 388.29,-337.68 112.03,-1053.61 -519.33,-916.33 13.3,22.33 24.68,34.54 40.59,48.85 359.67,-87.2 661.43,230.57 587.97,571.63 -44.05,204.49 -218.04,358.2 -425.52,376.69 -217.7,19.41 -417.633,-104.62 -496.394,-305.74 -54.164,-138.3 -30.715,-209.69 -2.368,-347.03 z M 304.133,2.51172 h 52.328 C 341.859,147.133 37.0938,236.238 58.7188,390.969 c 3.1757,22.695 22.5078,63.816 34.957,76.976 23.6482,24.996 10.5862,3.594 36.6522,23.344 l 31.426,30.348 c 100.512,-61.86 111.191,-11.223 164.879,43.523 l 360.441,411.348 c 60.5,-5.938 106.192,8.523 144.246,36.512 57.758,42.48 117.844,127.92 174.55,185.31 29.06,29.42 52.21,63.22 85.88,94.98 168.03,-32.6 257.89,-76.1 472.38,6.85 273.26,105.68 441.71,404.23 388.72,703.58 -116.47,658.03 -1063.631,708.66 -1244.881,62.56 -55.176,-196.68 -14.781,-311.35 48.285,-473.79 -26.652,-39.03 -50.598,-59.09 -80.156,-94.28 C 552.367,1350.91 483.266,1320.45 485.551,1147.98 L 121.211,740.68 C 59.5391,667.992 42.0273,660.273 100.016,572.691 L 18.0625,424.082 C -25.3086,290.672 85.7617,211.59 188.594,126.949 231.328,91.7734 288.125,59.1992 304.133,2.51172" /></g></g></svg>