<?xml version="1.0" encoding="UTF-8" standalone="no"?>
<svg
   xmlns:dc="http://purl.org/dc/elements/1.1/"
   xmlns:cc="http://creativecommons.org/ns#"
   xmlns:rdf="http://www.w3.org/1999/02/22-rdf-syntax-ns#"
   xmlns:svg="http://www.w3.org/2000/svg"
   xmlns="http://www.w3.org/2000/svg"
   viewBox="0 0 245.33333 246.66667"
   height="246.66667"
   width="245.33333"
   xml:space="preserve"
   id="svg2"
   version="1.1"><metadata
     id="metadata8"><rdf:RDF><cc:Work
         rdf:about=""><dc:format>image/svg+xml</dc:format><dc:type
           rdf:resource="http://purl.org/dc/dcmitype/StillImage" /></cc:Work></rdf:RDF></metadata><defs
     id="defs6" /><g
     transform="matrix(1.3333333,0,0,-1.3333333,0,246.66667)"
     id="g10"><g
       transform="scale(0.1)"
       id="g12"><path
         id="path14"
         style="fill:#020202;fill-opacity:1;fill-rule:evenodd;stroke:none"
         d="m 1640.61,302.695 c 5.83,5.024 21.01,18.328 24.39,26.2 -22.22,4.308 -35.86,-7.786 -24.39,-26.2" /><path
         id="path16"
         style="fill:#fdfdfd;fill-opacity:1;fill-rule:evenodd;stroke:none"
         d="m 311.031,241.918 c 8.809,0.605 29.485,3.234 35.836,10.195 -1.789,8.262 0.703,9.332 -4.164,12.282 l -15.242,-1.364 c -4.707,-4.777 -0.348,-2.543 -8.875,-5.078 -0.793,-0.234 -6.398,-0.14 -7.551,-0.14 l -0.004,-15.895" /><path
         id="path18"
         style="fill:#1e1e1e;fill-opacity:1;fill-rule:evenodd;stroke:none"
         d="m 212.617,255.344 c 5.309,-7.25 10.406,-10.938 16.879,-17.688 6.285,-6.551 9.348,-13.687 20.598,-14.832 -3.301,16.239 -21.848,21.766 -23.809,30.809 -2.019,9.316 4.141,5.07 -1.254,14.527 l -6.992,-6.222 c -4.363,-4.84 -1.414,-0.098 -5.422,-6.594" /><path
         id="path20"
         style="fill:#1d1d1d;fill-opacity:1;fill-rule:evenodd;stroke:none"
         d="m 223.34,212.047 c 9.715,0.027 14.219,-2.192 18.301,6.433 -7.582,5.067 -9.047,-1.238 -18.883,7.493 -6.602,5.863 -7.133,8.937 -14.469,14.625 2.609,8.847 7.82,15.39 -7.836,7.457 -6.875,9.09 -2.148,6.672 -14.055,8.976 3.696,-13.941 7.493,-8.465 6.961,-17.488 -0.828,-14.152 -1.375,-5.691 7.348,-5.527 5.469,0.105 8.254,-3.27 12.121,-8.086 4.375,-5.45 7.867,-10.047 10.512,-13.883" /><path
         id="path22"
         style="fill:#000000;fill-opacity:1;fill-rule:evenodd;stroke:none"
         d="m 1112.59,1164.69 29.95,0.09 c 22,-0.36 78.81,2.69 96.14,-1.5 l -0.45,-41.07 c -31.3,-4.95 -81.74,11.23 -90.07,-22.71 -8.03,-32.68 -23.65,-248.578 -34.37,-305.648 l -379.38,0.699 -31.73,281.649 c -13.602,4.85 -25.391,20.9 -35.914,31.16 l -9.188,13.95 -47.73,0.91 -0.16,41.16 c 15.226,4 469.712,0.77 502.902,1.31 z m -413.176,58.65 c 4.352,57.99 46.5,106.89 79.184,129.95 16.683,11.78 51.406,36.41 69.605,21.67 44.395,-35.98 107.949,-38.51 157.327,-12.73 19.63,10.26 16.76,24.81 65.79,-9.94 32.5,-23.03 73.34,-71.87 77.96,-129.44 z m 260.449,183.81 0.352,-1.56 -8.262,0.77 c -14.996,-10.82 -47.246,1.54 -59,8.35 -16.328,9.47 -25.422,27.75 -43.687,28.02 -30.825,0.43 -83.911,-27.64 -102.422,-40.5 -49.817,-34.63 -95.68,-92.35 -106.801,-178.71 -88.203,-7.27 -88.762,17.98 -88.543,-83.44 0.055,-26.36 -5.09,-60.79 13.734,-72.66 14.383,-9.06 60.293,-1.88 80.957,-5.07 11.504,-92.698 18.786,-183.205 30.145,-275.561 7.266,-59.07 9.465,-52.043 99.195,-51.172 40.688,0.399 362.199,-3.008 375.439,2.129 20.64,8.016 18.64,28.125 21.14,51.738 8,75.274 19.78,202.93 30.24,272.756 21.62,4.3 64.7,-4.81 80.74,5.31 19.43,12.25 13.71,44.07 13.61,70.07 -0.31,87.96 7.78,87.33 -83.72,85.15 -6.96,3.86 -4.11,-0.79 -6.3,11.84 -15.24,88.16 -73.64,165.26 -158.11,195.82 -59.211,21.42 -41.3,-12.75 -88.707,-23.28" /><path
         id="path24"
         style="fill:#000000;fill-opacity:1;fill-rule:evenodd;stroke:none"
         d="m 893.508,189.504 c 2.238,-0.367 9.281,-1.172 11.613,-1.852 6.887,-2.007 4.488,-2.05 6.973,-4.062 10.883,3.219 35.894,0.277 50.636,2.586 64.69,10.117 46.77,49.879 107.91,5.476 37.56,-27.289 80.36,-86.613 77.91,-129.8082 l -448.429,0.2773 c -3.266,59.8359 75.762,148.3009 133.738,157.1329 7.942,1.211 21,-11.141 29.657,-16.024 11.07,-6.242 21.515,-8.792 29.992,-13.726 z m 14.656,58.152 c -6.035,1.582 -9.84,2.895 -14.641,5.274 -7.98,3.965 -5.316,1.359 -9.718,8.605 -22.227,5.137 -7.297,34.953 -75.93,10.422 C 733.742,245.469 673.797,187.84 649.301,106.488 611.801,-18.0469 671.031,3.64453 746.039,3.72656 818.105,3.80078 890.25,3.25391 962.309,3.66797 1012.86,3.96094 1140.09,1.04688 1178.75,3.625 c 70.33,4.67969 21.53,193.703 -111.97,257.824 -47.32,22.731 -52.06,18.078 -75.901,-0.281 -14.805,-11.398 -62.445,-30.98 -82.715,-13.512" /><path
         id="path26"
         style="fill:#000000;fill-opacity:1;fill-rule:evenodd;stroke:none"
         d="m 215.188,219.055 c 4.816,-9.367 26.406,-19.621 39.367,-24.856 17.258,-6.969 36.008,-10.808 56.582,-10.289 19.57,0.496 38.23,4.391 54.894,11.582 14.364,6.196 27.727,21.571 42.914,15.606 54.172,-21.27 111.18,-92.883 112.024,-149.2386 L 71.4609,62.3359 c -0.4257,27.375 19.7579,66.5231 32.2031,83.3321 9.57,12.937 17.422,21.082 27.992,31.031 6.61,6.223 27.321,19.543 29.485,24.34 16.828,5.645 34.562,18.723 54.047,18.016 z m 64.531,25.715 -13.133,7.878 c -21.797,11.711 -17.781,18.266 -34.172,25.215 -7.066,13.774 -68.164,-11.828 -77.75,-16.109 C 90.9336,233.285 37.3359,171.445 18.1406,95.9531 -8.05078,-7.03906 24.6875,2.33984 111.977,3.37891 L 512.57,3.57813 c 30.535,0.15625 66.493,-6.32032 69.063,30.49997 5.222,74.9849 -44.098,160.3559 -100.719,201.9379 -18.266,13.41 -40.762,26.476 -65.625,34.914 -48.383,16.414 -36.531,-7.719 -68.422,-18.817 -6.351,-6.961 -27.027,-9.59 -35.836,-10.195 l -31.312,2.852" /><path
         id="path28"
         style="fill:#000000;fill-opacity:1;fill-rule:evenodd;stroke:none"
         d="m 1506.27,197.762 c 7.7,0.461 5.17,0.582 10.86,-1.414 -0.31,9.625 3.07,16.882 8.67,21.425 14.6,11.836 9.21,-0.589 15.83,15.707 l 35.51,-34.296 c 5.65,-8.774 0.45,-7.321 9.47,-11.879 24.84,-3.532 62.12,24.476 67.12,25.64 27.58,6.434 124.25,-78.949 123.27,-151.1012 l -449.42,0.7187 c 3.22,68.0035 61.07,126.4145 117.03,150.5625 16.87,7.277 19.64,9.703 32.87,-0.5 6.02,-4.652 19.57,-13.832 28.79,-14.863 z m 133.2,78.316 c -14.15,-7.473 -10.19,-6.801 -21.09,-15.734 -6.03,-4.946 -13.54,-7.379 -19.38,-13.379 l -24.76,-4.735 c -6.61,-5.074 8.05,-3.839 -7.45,-4.171 7.51,-4.426 8.28,-7.969 14.34,-12.809 9.47,-7.59 6.47,-0.629 16,-4.312 -1.68,-4.125 -0.94,-7.489 -10.42,-7.176 -9.49,0.316 -22.33,16.984 -27.71,23.367 -9.05,-2.965 -3.75,-5.336 -11.36,-1.445 1.3,6.066 -2.81,0.617 3.13,7.57 -65.52,11.144 -38.23,70.992 -148.2,14.062 C 1358.9,234.703 1321.93,199.277 1298.85,157.234 1281.71,125.996 1240.55,17 1289.55,4.95313 1302.8,1.69922 1465.45,3.5 1493.15,3.625 c 68.76,0.3125 137.67,0.23438 206.44,-0.00781 117.99,-0.41797 147.3,-15.45309 135.92,65.90621 -8.33,59.6016 -36.48,106.0276 -65.99,137.7816 -20.1,21.629 -78.57,69.125 -126.46,68.875 z m 3.27,0.102 c -1.09,-0.012 -2.19,-0.035 -3.27,-0.102 z m -136.47,-78.418 c 3.4,-3.598 2.28,-3.399 9.04,-5.824 4.1,-1.465 10.01,-2.465 14.69,-3.375 l -5.12,10.855 c -3.34,22.52 35.25,23.406 36.48,-1.016 0.65,-13.019 -5.34,-8.117 -16.81,-11.164 6.44,-4.172 24.68,-4.144 32.25,-3.047 l 9.81,3.114 c -9.02,4.558 -3.82,3.105 -9.47,11.879 l -35.51,34.296 c -6.62,-16.296 -1.23,-3.871 -15.83,-15.707 -5.6,-4.543 -8.98,-11.8 -8.67,-21.425 -5.69,1.996 -3.16,1.875 -10.86,1.414 z m 67.97,44.468 -23.47,1.024 c -5.94,-6.953 -1.83,-1.504 -3.13,-7.57 7.61,-3.891 2.31,-1.52 11.36,1.445 5.38,-6.383 18.22,-23.051 27.71,-23.367 9.48,-0.313 8.74,3.051 10.42,7.176 -9.53,3.683 -6.53,-3.278 -16,4.312 -6.06,4.84 -6.83,8.383 -14.34,12.809 15.5,0.332 0.84,-0.903 7.45,4.171 z M 1530,188.563 c 6.63,-3.149 7.23,-2.497 14.55,-1.325 11.47,3.047 17.46,-1.855 16.81,11.164 -1.23,24.422 -39.82,23.536 -36.48,1.016 l 5.12,-10.855" /><path
         id="path30"
         style="fill:#000000;fill-opacity:1;fill-rule:evenodd;stroke:none"
         d="m 860.359,1528.89 c -6.14,4.99 -4.82,4.02 -7.058,12.96 -3.867,5.12 -6.684,14.09 -5.649,23.94 -3.425,4.75 -2.336,3.11 -3.632,11.73 -4.793,4.09 -2.817,5.35 -8.899,10.32 -9.226,7.55 -31.133,4.76 -29.832,36.39 25.082,11.43 25.574,15.53 25.809,46.66 0.347,45.82 8.593,85.66 57.441,85.59 39.031,-0.05 32.289,20.53 39.359,32.17 31.696,3.31 80.722,-19.33 100.472,-51.7 38.06,-62.37 -5.97,-90.1 41.4,-110.58 0.81,-50.84 -31.27,-12.85 -41.07,-58.64 -27.7,-129.49 -161.782,-86.09 -168.341,-38.84 z m -61.496,-15.98 c 6.301,-4.77 15.754,-24.35 18.594,-31.21 5.238,-1.64 7.328,-9.49 19.258,-19.93 23.902,-20.89 54.191,-36.25 88.715,-37.89 l 26.687,-1.77 c 3.274,2.14 -0.172,0.67 5.781,2.46 17.457,5.25 20.532,1.9 46.312,15.22 30.21,15.61 53.45,39.99 67.56,72.46 21.22,48.84 -1.3,13.62 29.09,42.22 21.68,20.41 38.34,69.62 18.08,105.9 -4.39,7.86 -13.25,14.29 -14.82,19.06 -7.76,23.44 0.26,104.38 -96.78,149.57 -29.957,13.96 -84.676,25.09 -115.133,7.85 -10.754,-6.08 -10.312,-8.22 -17.309,-17.06 -7.16,-9.04 -11.945,-5.84 -25.21,-9.34 -18.907,-4.98 -32.418,-15.63 -43.493,-27.59 -21.953,-23.71 -30.769,-65.52 -33.164,-107.5 -23.699,-18.63 -35.176,-44.71 -20.34,-86.2 15.661,-43.78 43.043,-31.77 46.172,-76.25" /><path
         id="path32"
         style="fill:#000000;fill-opacity:1;fill-rule:evenodd;stroke:none"
         d="m 804.652,461.781 c 9.09,6.914 17.879,7.43 22.911,16.852 9.097,17.015 -3.739,56.195 16.089,94.371 11.274,21.707 25.231,19.812 54.786,22.156 37.148,2.945 14.82,34.656 38.55,32.957 63.082,-4.512 108.282,-53.433 108.952,-114.656 0.52,-47.148 2.23,-31.992 23.87,-49.223 -0.35,-52.797 -30.14,-7.562 -41.86,-60.836 -4.1,-18.609 -9.93,-31.48 -18.82,-44.91 -13.903,-21.008 -46.087,-44.304 -86.896,-37.176 -80.211,14.016 -67.933,90.852 -87.707,106.09 -15.879,12.246 -27.129,1.422 -29.875,34.375 z m 83.942,-192.234 c 13.734,-2.848 21.336,-3.453 26.957,-7.945 34.121,5.207 47.5,-2.231 81.082,13.253 25.647,11.833 38.677,24.836 52.817,40.77 22.24,25.09 22.85,43.34 32.21,61.488 4.31,8.34 40.04,24.86 39.41,53.082 -3.42,11.7 -14.89,18.43 -26.74,31.586 2.86,4.039 1.4,1.117 4.2,3.528 14.92,12.839 -2.69,6.218 22.74,23.812 -0.04,11.598 -6.75,16.609 -12.67,23.121 -8.11,8.918 -4.63,12.008 -6.9,27.313 -19.11,129.039 -153.891,162.433 -205.524,138.093 -11.703,-5.515 -13.266,-8.113 -19.528,-17.062 -7.843,-11.219 -9.933,-7.418 -23.921,-10.672 -19.094,-4.441 -33.622,-14.598 -43.555,-25.187 -10.336,-11.016 -19.719,-25.993 -25.813,-45.414 -9.648,-30.75 -7.789,-50.551 -10.406,-60.692 -1.762,-6.824 -48.203,-41.215 -15.469,-101.805 16.86,-31.214 27.356,-24.644 33.75,-37.484 8.633,-17.309 8.993,-29.574 20.664,-48.336 24.993,-40.176 48.469,-45.301 76.696,-61.449 z m 232.476,160.648 c 2.7,3.059 0.88,-0.109 3.03,4.852 0.08,0.18 1.29,3.766 1.29,3.781 0.7,2.36 1.02,5.637 1.5,8.453 -18.94,-1.41 -24.93,27.606 -1.46,33.969 -1.99,10.059 -1.5,5.461 -4.16,7.871 -25.43,-17.594 -7.82,-10.973 -22.74,-23.812 -2.8,-2.411 -1.34,0.511 -4.2,-3.528 11.85,-13.156 23.32,-19.886 26.74,-31.586 z m 5.82,17.086 -1.46,33.969 c -23.47,-6.363 -17.48,-35.379 1.46,-33.969" /><path
         id="path34"
         style="fill:#000000;fill-opacity:1;fill-rule:evenodd;stroke:none"
         d="m 425.977,472.473 15.851,-8.235 c 0.09,-7.207 0.313,-8.726 -2.031,-15.902 l -7.297,-10.606 -9.617,-4.136 c -6.399,-2.051 -5.078,-0.699 -10.289,-4.473 -14.621,-10.578 -11.235,-32.215 -24.629,-58.945 -13.156,-26.266 -30.016,-36.707 -59.731,-48.172 l -36.836,-0.344 -3.187,-0.961 c -5.402,4.723 -6.602,3.699 -14.016,5.641 -18.265,14.125 -40.992,20.164 -53.183,62.824 -5.489,19.207 -2.66,32.348 -18.375,40.524 -16.742,8.71 -24.469,6.207 -26.145,32.093 8.446,6.895 13.641,4.364 21.317,14.969 12.117,16.738 -2.559,53.047 15.722,92.395 18.856,40.605 55.149,15.632 74.516,33.543 12.465,11.531 -2.57,43.472 67.586,12.015 75.972,-34.066 56.863,-115.769 64.664,-132.242 z m -179.5,-195.887 10.812,-3.094 c 3.215,-4.015 -0.43,-2.34 8.238,-4.375 14.207,-7.476 43.36,-6.851 61.934,-6.086 l 15.242,1.364 c 3,2.207 -1.84,-0.34 5.223,2.898 l 14.695,5.238 c 6.856,2.61 11.797,4.774 18.348,8.606 35.066,20.531 55.695,47.976 69.992,89.547 5.699,16.55 15.914,14.984 26.648,27.754 7.789,9.277 13.782,20.156 17.86,33.859 5.984,20.133 6.136,47.699 -4.844,66.512 -1.895,3.246 -2.984,4.086 -5.191,7.187 l -3.762,6.652 c -8,3.508 -5.949,0.579 -6.352,13.02 -9.695,77.293 -45.726,125.094 -109.984,147.504 -99.258,34.617 -115.781,-15.317 -123.656,-19.391 -19.555,-10.117 -82.117,3.203 -95.918,-130.625 -1.52,-14.711 -3.621,-9.277 -12.446,-18.808 -18.296,-19.762 -17.714,-53.223 -8.781,-76.692 16.422,-43.136 33.024,-29.109 41.36,-56.754 6.496,-21.547 19.613,-46.746 34.597,-61.472 8.047,-7.907 24.266,-25.578 36.086,-26.34 2.426,-3.149 0.965,-1.883 4.82,-4.621 0.54,-0.387 1.985,-1.625 2.422,-1.024 0.461,0.637 1.774,-0.566 2.657,-0.859" /><path
         id="path36"
         style="fill:#000000;fill-opacity:1;fill-rule:evenodd;stroke:none"
         d="m 1432.61,461.781 c 8.39,7.149 13.49,3.563 21.35,14.59 11.34,15.899 -1.6,54.442 15.61,92.402 8.47,18.696 22.98,26.668 48.23,26.395 18.04,-0.191 29.07,3.801 34.23,18.84 0.98,2.863 1.25,4.781 2.3,7.648 2.36,6.446 0.18,2.055 2.72,5.848 63.19,2.625 115.26,-47.902 117.07,-111.664 1.26,-44.828 -3.45,-32.152 23.53,-51.602 0.45,-39.773 -15.92,-22.66 -31.66,-37.675 -11.09,-10.571 -11.73,-35.125 -18.5,-50.379 -34.52,-77.707 -136.32,-71.473 -165.63,0.625 -6.86,16.875 -7.19,40.8 -18.65,50.117 -10.91,8.859 -27.99,1.797 -30.6,34.855 z m 170,-192.922 6.06,0.911 c 5.24,1.316 10.25,2.382 15.39,4.644 3.93,1.731 1.37,0.246 4.7,2.602 3.75,2.652 1.53,0.832 4.09,4.14 5.6,0.621 4.38,-1.488 8.41,4.219 6.7,2.145 3.33,-0.379 9.21,4.41 5.95,4.848 2.48,2.672 4.84,6.125 6.47,1.317 5.7,1.418 11.45,6.949 4.08,3.922 5.84,6.157 9.18,10.543 38.67,50.832 23.73,60.086 44.55,73.399 26.73,17.09 49.46,71.285 26.49,112.519 -7.35,13.203 -13.23,9.598 -15.56,23.766 -1.92,11.672 -2.16,21.898 -5.14,34.043 -31.86,130.059 -181.3,145.543 -214.49,112.074 -15.38,-15.508 -3.7,-13.976 -21.98,-17.683 -99.9,-20.278 -77.02,-124.766 -93.91,-141.622 -33.96,-33.89 -23.99,-82.093 3.71,-112.179 5.6,-6.078 16.91,-12.543 20.12,-19.235 3.78,-7.839 3.93,-18.441 9.82,-24.847 7.97,-28.106 42.43,-66.91 69.43,-74.828 0.3,-0.34 0.82,-0.77 1,-0.907 l 6.78,-4.097 c 21.4,-9.614 63.29,-15.844 83.35,-9.047 6.09,0.82 10.42,-0.27 12.5,4.101" /><path
         id="path38"
         style="fill:#000000;fill-opacity:1;fill-rule:evenodd;stroke:none"
         d="m 756.488,1059.55 c -32.39,-8.55 -28.511,-54.01 6.914,-56.73 35.559,-2.73 321.868,-1.09 329.938,1.14 29.18,8.09 28.44,54.88 -8.21,56.93 -34.72,1.94 -75.13,-0.29 -110.536,-0.17 -36.367,0.12 -195.727,4.75 -218.106,-1.17" /><path
         id="path40"
         style="fill:#000000;fill-opacity:1;fill-rule:evenodd;stroke:none"
         d="m 889.508,936.016 c 1.523,3.91 6.863,11.269 13.816,12.453 4.742,-11.41 -7.519,-9.004 8.008,-24.039 6.348,-6.145 13.848,-10.364 15.559,-19.606 -9.348,-1.551 -9.582,2.617 -21.153,14.043 -6.031,5.949 -11.519,10.668 -16.23,17.149 z m 67.07,19.699 -11.992,-0.067 -33.219,0.157 c -33.246,0.746 -68.09,0.324 -101.429,0.054 -32.36,-0.261 -73.844,8.239 -75.247,-27.402 -1.433,-36.582 40.278,-30.816 70.332,-30.797 l 206.437,-0.004 c 23.93,-0.008 78.93,-6.386 93.96,8.313 7.01,6.851 27.21,49.871 -34.96,49.961 -35.19,0.05 -70.41,0 -105.601,-0.016 z m -67.07,-19.699 c 4.711,-6.481 10.199,-11.2 16.23,-17.149 11.571,-11.426 11.805,-15.594 21.153,-14.043 -1.711,9.242 -9.211,13.461 -15.559,19.606 -15.527,15.035 -3.266,12.629 -8.008,24.039 -6.953,-1.184 -12.293,-8.543 -13.816,-12.453" /><path
         id="path42"
         style="fill:#000000;fill-opacity:1;fill-rule:evenodd;stroke:none"
         d="m 291.801,292.883 c 31.398,-5.856 25.523,16.621 28.566,24.152 -17.847,-1.254 -28.41,-17.68 -28.566,-24.152" /><path
         id="path44"
         style="fill:#080808;fill-opacity:1;fill-rule:evenodd;stroke:none"
         d="m 702.68,1076.2 c -1.977,36.28 -7.895,45.72 -45.102,45.11 l 9.188,-13.95 c 10.523,-10.26 22.312,-26.31 35.914,-31.16" /><path
         id="path46"
         style="fill:#fefefe;fill-opacity:1;fill-rule:evenodd;stroke:none"
         d="m 951.953,1406.36 8.262,-0.77 -0.352,1.56 -0.004,13.11 -7.742,1.85 -26.687,1.77 0.004,-15.93 26.519,-1.59" /></g></g></svg>