<?xml version="1.0" encoding="UTF-8" standalone="no"?>
<svg
   xmlns:dc="http://purl.org/dc/elements/1.1/"
   xmlns:cc="http://creativecommons.org/ns#"
   xmlns:rdf="http://www.w3.org/1999/02/22-rdf-syntax-ns#"
   xmlns:svg="http://www.w3.org/2000/svg"
   xmlns="http://www.w3.org/2000/svg"
   viewBox="0 0 300 301.33334"
   height="301.33334"
   width="300"
   xml:space="preserve"
   id="svg2"
   version="1.1"><metadata
     id="metadata8"><rdf:RDF><cc:Work
         rdf:about=""><dc:format>image/svg+xml</dc:format><dc:type
           rdf:resource="http://purl.org/dc/dcmitype/StillImage" /></cc:Work></rdf:RDF></metadata><defs
     id="defs6" /><g
     transform="matrix(1.3333333,0,0,-1.3333333,0,301.33333)"
     id="g10"><g
       transform="scale(0.1)"
       id="g12"><path
         id="path14"
         style="fill:#e60910;fill-opacity:1;fill-rule:evenodd;stroke:none"
         d="m 2034.41,1968.33 h 71.39 l 0.02,-71.55 h -72.11 l 0.55,41.72 z m 73.36,76.66 h -433.04 l 1.25,61.23 h 428.5 z m -436.17,-76.66 h 287.17 l -0.29,-71.55 H 1671.4 Z m 574.38,-149.78 v 371.39 c -48.57,63.21 -16.43,25.02 -78.55,68.56 h -565.48 c -43.88,-35.47 -73.13,-38.52 -76.71,-119.45 -17.06,-385.72 3.74,-387.62 205.53,-387.62 -4.98,-32.49 -10.37,-63.61 -16.21,-93.36 -30.47,-155.13 80.48,-61.68 132.24,-30.27 119.81,72.71 158.28,122.63 269.31,123.72 95.39,0.93 85.81,17.44 129.87,67.03" /><path
         id="path16"
         style="fill:#e60910;fill-opacity:1;fill-rule:evenodd;stroke:none"
         d="M 782.023,372.074 944.766,204.75 994.375,247.129 836.324,408.859 782.023,372.074" /><path
         id="path18"
         style="fill:#e60910;fill-opacity:1;fill-rule:evenodd;stroke:none"
         d="M 198.695,950.715 363.086,788.016 400.883,825.258 238.672,989.652 198.695,950.715" /><path
         id="path20"
         style="fill:#000000;fill-opacity:1;fill-rule:evenodd;stroke:none"
         d="M 836.324,408.859 994.375,247.129 944.766,204.75 782.023,372.074 Z m -289.703,39.637 c 28.074,196.883 157.652,207.133 378.984,241.543 45.766,7.113 45.063,-1.437 72.114,-29.437 41.311,-42.75 81.421,-77.782 118.261,-121.09 50.27,33.195 94.53,95.328 142.81,136.996 30.84,26.605 44.78,14.594 99.38,4.449 277.52,-51.578 281.89,-26.805 363.67,-308.32 -144.3,-15.215 -363.46,-2.422 -515.86,-2.422 -187.3,0 -217.152,-53.297 -366.179,140.508 C 805.816,494.617 821.27,499.121 785.617,469.043 622.547,331.496 674.34,323.48 546.621,448.496 Z M 892.387,154.906 C 795.043,66.6133 713.141,40.4766 599.84,152.32 L 149.531,602.051 C 48.8672,702.441 41.8711,819.105 147.309,897.879 L 307.305,738.5 C 257.793,606.867 264.617,629.102 446.035,448.492 582.391,312.746 607.313,245.363 727.52,318.066 Z m 124.093,592.578 c 32.6,-3.382 75.79,-16.445 109.81,-13.757 l 99.18,12.851 -105.51,-104.086 z M 238.672,989.652 400.883,825.258 363.086,788.016 198.695,950.715 Z M 1455.1,950.289 c 2.16,10.445 13.14,54.811 16.76,62.111 12.89,26.05 15.05,20.53 51.43,28.75 l -12.62,-77.146 c -24.38,-15.762 -17.14,-12.078 -55.57,-13.715 z M 828.594,1276.39 c 146.414,39.61 191.676,41.13 284.886,131.09 40.03,-15.27 31.7,-21.65 65.7,-45.8 82.93,-58.91 156.37,-60.95 232.97,-86.5 -1.69,-132.47 14.99,-211.32 -40.31,-324.067 l -250.68,-0.386 1.19,-71.067 183.86,-0.93 C 1208.95,777.223 1039.32,789.836 931.508,874.117 820.477,960.918 831.25,1100.73 828.594,1276.39 Z m 654.766,-49.1 c 41.03,-24.5 59.69,-78.16 -1.06,-115.46 z M 756.176,1110.96 c -42.719,31.18 -53.629,90.93 2.293,116.7 l 0.375,-39.16 0.535,-40.04 z m -30.199,188.06 c -20.196,52.51 -8.75,156.99 4.156,215.43 92.562,419.15 769.267,438.59 790.787,-116.01 3.21,-82.46 5,-79.36 -14.94,-99.06 -44.82,23.35 -9.8,0.22 -30,48.89 -299.42,23.01 -245.31,105.86 -362.62,161.25 -75.5,-96.64 -170.876,-152.71 -347.383,-160.4 -22.895,-49.14 18.828,-34.09 -40,-50.1 z M 711.254,8.5 h 69.133 c 95.105,48.668 16.843,-24.7422 168.89,96.668 46.786,37.363 64.573,74.379 148.183,130.324 -13.63,35.035 -22.06,37.696 -48.48,60.004 l 773.18,3.391 c -123.67,343.484 -68.81,415.051 -522,463.488 26.84,70.652 68.16,41.086 104.3,116.945 215.66,3.114 186.6,55.7 186.59,259.18 0,128.89 13.08,308.59 -20.73,423.76 -57.93,197.38 -282.7,385.96 -558.66,320.22 -266.367,-63.44 -362.59,-264.43 -361.879,-513.97 0.289,-101.09 -19.765,-225.89 33.789,-292.17 56.11,-69.44 52.227,14.12 102.567,-117.606 C 842.664,810.824 919.691,823.48 936.973,768.5 822.691,715.605 652.949,762.688 544.25,630.07 510.727,589.176 506.023,555.117 485.859,511.777 275.781,699.047 346.789,651.504 502.816,826.82 464.102,872.266 277.43,1066.38 235.977,1090.12 182.793,1052.42 30.0859,904.047 9.42188,815.105 -31.6641,638.223 103.535,543.59 172.195,474.73 227.43,419.34 559.293,76.5508 620.355,42.6641 652.426,24.8672 684.742,21.7188 711.254,8.5" /><path
         id="path22"
         style="fill:#000000;fill-opacity:1;fill-rule:evenodd;stroke:none"
         d="M 126.484,1369.01 63.7695,1475.92 C 34.7617,1461.91 25.8672,1461.03 5.44922,1438.5 36.8945,1369.68 91.4023,1298.25 127.578,1231.11 c 47.977,25.9 170.555,92.96 207.66,127.39 -9.55,25.66 -18.867,33.61 -32.07,56.84 l -94.086,-53.08 c 3.856,94.58 109.867,275.32 151.445,331.8 138.735,188.46 367.543,333.95 608.375,370.87 259.528,39.8 336.818,-24.13 432.668,-23.04 l 16.95,56.4 c -28.17,18.56 -67.45,25.03 -101.22,31.1 -35.57,6.38 -76.71,12.91 -115.19,16.62 -427.915,41.28 -813.43,-201.29 -1000.876,-583.03 -27.586,-56.18 -51.308,-154.31 -74.75,-193.97" /><path
         id="path24"
         style="fill:#000000;fill-opacity:1;fill-rule:evenodd;stroke:none"
         d="m 1894.96,1365.49 64.25,-31.06 54.03,96.69 c 23,-24.32 30.12,-74.22 36.82,-108.26 41.01,-208.39 14.26,-415.063 -75.93,-602.981 -35.57,-74.117 -79.52,-120.016 -109.83,-181.383 26.49,-24.168 20.09,-27.777 51.68,-38.242 77.22,74.312 168.07,269.836 197.43,400.793 49.9,222.503 24.79,342.903 -21.84,550.063 43.13,-18.29 62.96,-39.76 104.41,-51.46 21.7,28.23 23.93,27.31 33.59,61.07 -72.66,29.19 -140.85,92.46 -214.61,119.26 -24.69,-69.48 -93.41,-144.1 -120,-214.49" /><path
         id="path26"
         style="fill:#000000;fill-opacity:1;fill-rule:evenodd;stroke:none"
         d="m 2107.77,2044.99 -3.29,61.23 h -428.5 l -1.25,-61.23 h 433.04" /><path
         id="path28"
         style="fill:#000000;fill-opacity:1;fill-rule:evenodd;stroke:none"
         d="m 1671.4,1896.78 h 287.08 l 0.29,71.55 H 1671.6 l -0.2,-71.55" /><path
         id="path30"
         style="fill:#000000;fill-opacity:1;fill-rule:evenodd;stroke:none"
         d="m 2034.26,1938.5 -0.55,-41.72 h 72.11 l -0.02,71.55 h -71.39 l -0.15,-29.83" /><path
         id="path32"
         style="fill:#fffbf2;fill-opacity:1;fill-rule:evenodd;stroke:none"
         d="m 2245.98,2189.94 v 68.56 h -78.55 c 62.12,-43.54 29.98,-5.35 78.55,-68.56" /></g></g></svg>