<svg width="144" height="41" viewBox="0 0 144 41" fill="none" xmlns="http://www.w3.org/2000/svg"><g clip-path="url(#clip0)"><path fill-rule="evenodd" clip-rule="evenodd" d="M35.087 9.516c.66.405.964 1.012.964 1.822v18.273c0 .81-.305 1.417-.964 1.822-5.374 3.088-10.749 6.176-16.073 9.263-.66.405-1.369.355-2.079-.05C11.611 37.558 6.287 34.52.963 31.433.304 31.028 0 30.421 0 29.611V11.338c0-.81.304-1.417.963-1.822C6.287 6.428 11.611 3.391 16.935.304c.71-.405 1.37-.456 2.08-.05 5.323 3.087 10.698 6.174 16.072 9.262z" fill="#ED1C24"/><path d="M42.693 23.84h-4.36c-.102 7.796 14.349 7.695 14.349.203 0-4.403-3.448-4.96-6.998-5.315-1.622-.202-2.94-.455-2.788-1.771.152-2.126 4.918-2.329 4.918.05h4.31c.101-7.643-13.69-7.643-13.538 0 .05 3.847 2.586 5.163 6.44 5.467 1.774.101 3.244.405 3.244 1.62-.05 2.024-5.577 2.024-5.577-.253zm15.16-8.25v13.667h4.513V15.59h4.31v-4.05H53.493v4.05h4.36zm19.877 6.226l5.983-9.617v-.658h-4.919l-3.245 5.922h-.203l-3.194-5.872h-4.868v.658l5.933 9.618v7.44h4.513v-7.49zm12.22-10.275h-4.564v17.716h11.003v-4.1h-6.44V11.54zm14.095 13.768v-9.82h2.079V11.54h-8.62v3.948h2.08v9.82H97.3v3.948h9.026v-3.948h-2.282zm18.101 3.948h1.623V11.54h-4.614v8.655l-8.975-8.757h-1.673v17.767h4.716V20.55l8.923 8.706zm4.31-8.858c0 6.074 4.564 9.06 9.127 9.06 3.245 0 6.642-1.417 7.91-5.112.608-1.721.608-3.442.507-5.214h-8.417v3.898h3.752c-.811 1.67-1.977 2.176-3.803 2.176-2.687 0-4.411-1.923-4.411-4.859 0-2.733 1.572-4.96 4.411-4.96 1.775 0 2.941.607 3.702 2.126h4.462c-.862-4.404-4.614-6.226-8.164-6.277-4.512.101-9.076 3.138-9.076 9.162z" fill="#000001"/><path d="M16.124 22.98c4.513-3.037 3.245-11.44-3.752-11.44H4.563v17.717h4.564v-5.214h2.332l3.042 5.214h5.07v-.658l-3.447-5.619zm-3.752-2.936H9.127v-4.403h3.245c2.586 0 2.434 4.403 0 4.403zm19.521-8.503H20.789v17.716h11.307v-4.05H25.3V22.07h6.034v-4.05H25.3v-2.48h6.592v-3.998z" fill="#fff"/></g><defs><clipPath id="clip0"><path fill="#fff" d="M0 0h144v41H0z"/></clipPath></defs></svg>