<svg width="160" height="46" viewBox="0 0 160 46" fill="none" xmlns="http://www.w3.org/2000/svg"><path fill-rule="evenodd" clip-rule="evenodd" d="M38.495 10.524c.723.446 1.057 1.116 1.057 2.01v20.151c0 .893-.334 1.563-1.057 2.01A4958.326 4958.326 0 0020.86 44.91c-.724.447-1.502.39-2.281-.056-5.84-3.404-11.681-6.754-17.522-10.16C.334 34.249 0 33.579 0 32.686V12.533c0-.893.334-1.563 1.057-2.01C6.897 7.12 12.739 3.77 18.58.365c.779-.446 1.502-.502 2.28-.056 5.841 3.405 11.738 6.81 17.635 10.216z" fill="#ED1C24"/><path d="M48.855 26.321h-4.784c-.11 8.597 15.743 8.485 15.743.224 0-4.913-3.783-5.47-7.62-5.862-1.781-.223-3.227-.502-3.06-1.953.166-2.345 5.395-2.568 5.395.055h4.729c.111-8.429-15.02-8.429-14.853 0 .056 4.243 2.837 5.694 7.065 6.03 1.947.11 3.56.446 3.56 1.785-.111 2.233-6.175 2.233-6.175-.279zm16.578-9.099v15.072h4.95V17.222h4.729v-4.465H60.649v4.465h4.784zm21.861 6.866l6.565-10.606v-.725h-5.396l-3.56 6.53h-.223l-3.505-6.475h-5.34v.726l6.509 10.606v8.206h4.95v-8.262zm13.407-11.331h-5.007v19.537h12.072v-4.521h-7.065V12.757zM116.11 27.94V17.11h2.281v-4.353h-9.457v4.354h2.281v10.83h-2.504v4.353h9.902V27.94h-2.503zm19.915 4.354h1.78V12.757h-5.062v9.545l-9.847-9.657h-1.835v19.594h5.173v-9.546l9.791 9.601zm4.672-9.768c0 6.698 5.007 9.992 10.014 9.992 3.56 0 7.287-1.563 8.678-5.638.667-1.898.667-3.796.556-5.75h-9.234v4.298h4.172c-.89 1.842-2.17 2.4-4.172 2.4-2.949 0-4.84-2.12-4.84-5.358 0-3.015 1.724-5.47 4.84-5.47 1.947 0 3.226.669 4.06 2.344h4.896c-.946-4.857-5.062-6.867-8.956-6.922-4.951.111-9.958 3.46-10.014 10.104zM17.69 25.372c4.95-3.349 3.56-12.615-4.117-12.615H5.007v19.537h5.006v-5.75h2.559l3.338 5.75h5.563v-.725l-3.783-6.197zm-4.117-3.237h-3.56v-4.857h3.56c2.837 0 2.67 4.857 0 4.857zm21.417-9.378H22.807v19.537h12.406V27.83h-7.455v-3.461h6.62v-4.466h-6.62v-2.735h7.232v-4.41z" fill="#fff"/></svg>